<svg width="20" height="21" viewBox="0 0 20 21" fill="none" xmlns="http://www.w3.org/2000/svg">
<path fill-rule="evenodd" clip-rule="evenodd" d="M6 16.7393H18C18.5304 16.7393 19.0391 16.5285 19.4142 16.1535C19.7893 15.7784 20 15.2697 20 14.7393V2.73926C20 2.20882 19.7893 1.70012 19.4142 1.32504C19.0391 0.949971 18.5304 0.739258 18 0.739258H6C5.46957 0.739258 4.96086 0.949971 4.58579 1.32504C4.21071 1.70012 4 2.20882 4 2.73926V14.7393C4 15.2697 4.21071 15.7784 4.58579 16.1535C4.96086 16.5285 5.46957 16.7393 6 16.7393ZM6 14.7393V2.73926H18V14.7393H6ZM0 6.73926H2V18.7393H14V20.7393H2C1.46957 20.7393 0.960859 20.5285 0.585786 20.1535C0.210714 19.7784 0 19.2697 0 18.7393V6.73926ZM17 12.7393H8L10.25 9.62826L11 10.4053L13.25 7.29526L17 12.7393ZM9.875 8.07226C9.254 8.07226 8.75 7.55026 8.75 6.90626C8.75 6.26126 9.254 5.73926 9.875 5.73926C10.496 5.73926 11 6.26126 11 6.90626C11 7.55026 10.496 8.07226 9.875 8.07226Z" fill="#9494A0"/>
</svg>
