<svg width="20" height="22" viewBox="0 0 20 22" fill="none" xmlns="http://www.w3.org/2000/svg">
<path fill-rule="evenodd" clip-rule="evenodd" d="M0 2.23953C0 1.00443 0.996667 0 2.22222 0H17.7778C19.0033 0 20 1.00443 20 2.23953V15.6767C20 16.9118 19.0033 17.9163 17.7778 17.9163H13.7933L10 21.7391L6.20667 17.9163H2.22222C0.996667 17.9163 0 16.9118 0 15.6767V2.23953ZM12.8733 15.6767H17.7778V2.23953H2.22222V15.6767H7.12667L10 18.5724L12.8733 15.6767ZM15.5553 5.59868H4.44421V7.83821H15.5553V5.59868ZM12.222 10.0777H4.44421V12.3173H12.222V10.0777Z" fill="#9494A0"/>
</svg>
