<svg width="22" height="23" viewBox="0 0 22 23" fill="none" xmlns="http://www.w3.org/2000/svg">
<path d="M11 7.44862C9.15889 7.44862 7.66667 8.44307 7.66667 9.67084C7.66667 10.8986 9.15889 11.8931 11 11.8931C12.8411 11.8931 14.3333 12.8875 14.3333 14.1153C14.3333 15.3431 12.8411 16.3375 11 16.3375V7.44862ZM11 7.44862C12.2333 7.44862 13.3111 7.89529 13.8878 8.55973L11 7.44862ZM11 7.44862V6.33751V7.44862ZM11 7.44862V16.3375V7.44862ZM11 16.3375V17.4486V16.3375ZM11 16.3375C9.76667 16.3375 8.68889 15.8908 8.11222 15.2264L11 16.3375ZM21 11.8931C21 13.2063 20.7413 14.5066 20.2388 15.7199C19.7363 16.9332 18.9997 18.0355 18.0711 18.9641C17.1425 19.8927 16.0401 20.6293 14.8268 21.1319C13.6136 21.6344 12.3132 21.8931 11 21.8931C9.68678 21.8931 8.38642 21.6344 7.17317 21.1319C5.95991 20.6293 4.85752 19.8927 3.92893 18.9641C3.00035 18.0355 2.26375 16.9332 1.7612 15.7199C1.25866 14.5066 1 13.2063 1 11.8931C1 9.2409 2.05357 6.69736 3.92893 4.822C5.8043 2.94663 8.34784 1.89307 11 1.89307C13.6522 1.89307 16.1957 2.94663 18.0711 4.822C19.9464 6.69736 21 9.2409 21 11.8931Z" stroke="#9494A0" stroke-width="2" stroke-linecap="round" stroke-linejoin="round"/>
</svg>
