<svg width="20" height="19" viewBox="0 0 20 19" fill="none" xmlns="http://www.w3.org/2000/svg">
<path d="M12.754 7.73926C13.72 7.73926 14.504 8.52326 14.504 9.48926V14.2383C14.504 15.432 14.0297 16.5768 13.1856 17.4209C12.3415 18.265 11.1967 18.7393 10.003 18.7393C8.80921 18.7393 7.66437 18.265 6.82027 17.4209C5.97616 16.5768 5.50195 15.432 5.50195 14.2383V9.48926C5.50195 8.52326 6.28495 7.73926 7.25195 7.73926H12.754ZM12.754 9.23926H7.25195C7.18565 9.23926 7.12206 9.2656 7.07518 9.31248C7.02829 9.35936 7.00195 9.42295 7.00195 9.48926V14.2383C7.00195 15.0342 7.31813 15.7975 7.88093 16.3603C8.44372 16.9231 9.20704 17.2393 10.003 17.2393C10.7989 17.2393 11.5622 16.9231 12.125 16.3603C12.6878 15.7975 13.004 15.0342 13.004 14.2383V9.48926C13.004 9.42295 12.9776 9.35936 12.9307 9.31248C12.8838 9.2656 12.8203 9.23926 12.754 9.23926Z" fill="#9494A0"/>
<path d="M1.75 7.73926H5.131C4.7782 8.16535 4.56274 8.68831 4.513 9.23926H1.75C1.6837 9.23926 1.62011 9.2656 1.57322 9.31248C1.52634 9.35936 1.5 9.42295 1.5 9.48926V12.7383C1.49994 13.1161 1.5855 13.4891 1.75027 13.8292C1.91504 14.1693 2.15473 14.4676 2.45133 14.7017C2.74793 14.9359 3.09374 15.0998 3.46277 15.1811C3.83179 15.2624 4.21445 15.259 4.582 15.1713C4.667 15.6753 4.822 16.1563 5.035 16.6033C4.44228 16.7618 3.82103 16.7819 3.21929 16.6621C2.61756 16.5422 2.05145 16.2855 1.56475 15.9119C1.07805 15.5383 0.683789 15.0578 0.412463 14.5075C0.141138 13.9572 1.22998e-05 13.3518 0 12.7383V9.48926C0 8.52326 0.784 7.73926 1.75 7.73926ZM14.875 7.73926H18.25C19.216 7.73926 20 8.52326 20 9.48926V12.7393C20.0001 13.3524 19.8593 13.9574 19.5884 14.5075C19.3175 15.0575 18.9237 15.538 18.4376 15.9116C17.9514 16.2853 17.3858 16.5422 16.7846 16.6624C16.1833 16.7827 15.5625 16.7631 14.97 16.6053C15.184 16.1573 15.339 15.6763 15.425 15.1723C15.7921 15.259 16.174 15.2616 16.5423 15.1798C16.9105 15.0979 17.2554 14.9339 17.5512 14.6998C17.847 14.4658 18.086 14.1678 18.2503 13.8283C18.4147 13.4888 18.5 13.1165 18.5 12.7393V9.48926C18.5 9.42295 18.4737 9.35936 18.4268 9.31248C18.3799 9.2656 18.3163 9.23926 18.25 9.23926H15.493C15.4433 8.68831 15.2278 8.16535 14.875 7.73926Z" fill="#9494A0"/>
<path d="M10 0.739258C10.7956 0.739258 11.5587 1.05533 12.1213 1.61794C12.6839 2.18055 13 2.94361 13 3.73926C13 4.53491 12.6839 5.29797 12.1213 5.86058C11.5587 6.42319 10.7956 6.73926 10 6.73926C9.20435 6.73926 8.44129 6.42319 7.87868 5.86058C7.31607 5.29797 7 4.53491 7 3.73926C7 2.94361 7.31607 2.18055 7.87868 1.61794C8.44129 1.05533 9.20435 0.739258 10 0.739258ZM16.5 1.73926C17.163 1.73926 17.7989 2.00265 18.2678 2.47149C18.7366 2.94033 19 3.57622 19 4.23926C19 4.9023 18.7366 5.53818 18.2678 6.00702C17.7989 6.47587 17.163 6.73926 16.5 6.73926C15.837 6.73926 15.2011 6.47587 14.7322 6.00702C14.2634 5.53818 14 4.9023 14 4.23926C14 3.57622 14.2634 2.94033 14.7322 2.47149C15.2011 2.00265 15.837 1.73926 16.5 1.73926ZM3.5 1.73926C4.16304 1.73926 4.79893 2.00265 5.26777 2.47149C5.73661 2.94033 6 3.57622 6 4.23926C6 4.9023 5.73661 5.53818 5.26777 6.00702C4.79893 6.47587 4.16304 6.73926 3.5 6.73926C2.83696 6.73926 2.20107 6.47587 1.73223 6.00702C1.26339 5.53818 1 4.9023 1 4.23926C1 3.57622 1.26339 2.94033 1.73223 2.47149C2.20107 2.00265 2.83696 1.73926 3.5 1.73926ZM10 2.23926C9.60218 2.23926 9.22064 2.39729 8.93934 2.6786C8.65804 2.9599 8.5 3.34143 8.5 3.73926C8.5 4.13708 8.65804 4.51861 8.93934 4.79992C9.22064 5.08122 9.60218 5.23926 10 5.23926C10.3978 5.23926 10.7794 5.08122 11.0607 4.79992C11.342 4.51861 11.5 4.13708 11.5 3.73926C11.5 3.34143 11.342 2.9599 11.0607 2.6786C10.7794 2.39729 10.3978 2.23926 10 2.23926ZM16.5 3.23926C16.2348 3.23926 15.9804 3.34461 15.7929 3.53215C15.6054 3.71969 15.5 3.97404 15.5 4.23926C15.5 4.50447 15.6054 4.75883 15.7929 4.94636C15.9804 5.1339 16.2348 5.23926 16.5 5.23926C16.7652 5.23926 17.0196 5.1339 17.2071 4.94636C17.3946 4.75883 17.5 4.50447 17.5 4.23926C17.5 3.97404 17.3946 3.71969 17.2071 3.53215C17.0196 3.34461 16.7652 3.23926 16.5 3.23926ZM3.5 3.23926C3.23478 3.23926 2.98043 3.34461 2.79289 3.53215C2.60536 3.71969 2.5 3.97404 2.5 4.23926C2.5 4.50447 2.60536 4.75883 2.79289 4.94636C2.98043 5.1339 3.23478 5.23926 3.5 5.23926C3.76522 5.23926 4.01957 5.1339 4.20711 4.94636C4.39464 4.75883 4.5 4.50447 4.5 4.23926C4.5 3.97404 4.39464 3.71969 4.20711 3.53215C4.01957 3.34461 3.76522 3.23926 3.5 3.23926Z" fill="#9494A0"/>
</svg>
